<?xml version="1.0"?>
<svg version="1.1" xmlns="http://www.w3.org/2000/svg" width="134" height="95" style=""><path fill="#1c6bd4" d="M17.139404296875,34.444580078125q-0.084228515625-1.027587890625,0.134765625-1.78564453125t0.8759765625-1.24658203125t2.105712890625-0.488525390625l5.42431640625,0q1.11181640625,0,2.914306640625,0.117919921875t3.87451171875,0.353759765625t4.127197265625,0.724365234375t3.756591796875,1.212890625t2.7626953125,1.78564453125t1.061279296875,2.510009765625q0,2.05517578125-1.196044921875,3.857666015625t-2.99853515625,3.251220703125t-3.80712890625,2.577392578125t-3.588134765625,2.038330078125q6.2666015625,1.38134765625,9.80419921875,5.7275390625t3.53759765625,10.8486328125q0,3.4365234375-1.31396484375,6.788818359375t-3.588134765625,6.047607421875t-5.390625,4.34619140625t-6.687744140625,1.65087890625q-0.4716796875,0-1.061279296875-0.10107421875t-1.078125-0.320068359375t-0.84228515625-0.623291015625t-0.353759765625-1.04443359375q0-2.96484375,3.20068359375-2.96484375q0.5390625,0,1.263427734375,0.151611328125t1.128662109375,0.623291015625q1.85302734375-0.77490234375,3.385986328125-2.45947265625t2.59423828125-3.756591796875t1.65087890625-4.34619140625t0.589599609375-4.127197265625q0-2.2236328125-0.656982421875-4.531494140625t-1.903564453125-4.27880859375t-3.06591796875-3.318603515625t-4.177734375-1.6845703125q-0.6064453125-0.0673828125-1.330810546875-0.10107421875l-1.44873046875-0.0673828125t-1.4150390625-0.2021484375t-1.196044921875-0.5390625q0.26953125,5.5927734375,0.690673828125,11.15185546875t1.128662109375,11.15185546875q0.26953125,0.26953125,0.37060546875,0.791748046875t0.16845703125,1.11181640625t0.0673828125,1.128662109375l0,0.90966796875q0,0.6064453125-0.404296875,0.993896484375t-0.960205078125,0.623291015625t-1.17919921875,0.30322265625t-1.094970703125,0.0673828125q-1.51611328125,0-2.32470703125-0.404296875t-1.1455078125-1.17919921875t-0.43798828125-1.768798828125t-0.16845703125-2.173095703125q-0.90966796875-9.39990234375-1.31396484375-18.59765625t-0.404296875-18.59765625q0-1.11181640625-0.084228515625-2.139404296875z M23.35546875,33.0126953125q0,4.14404296875,0.26953125,8.304931640625t0.4716796875,8.304931640625q1.51611328125-0.90966796875,3.9755859375-2.139404296875t4.767333984375-2.712158203125t3.958740234375-3.26806640625t1.65087890625-3.87451171875q0-1.65087890625-1.9541015625-2.510009765625t-4.54833984375-1.2802734375t-5.070556640625-0.522216796875t-3.520751953125-0.30322265625z M52.790639648437,35.8427734375q0-1.58349609375,0.387451171875-2.307861328125t1.11181640625-1.0107421875t1.751953125-0.218994140625t2.408935546875,0.0673828125q3.50390625,0,7.0751953125,1.078125t6.43505859375,3.150146484375t4.61572265625,5.104248046875t1.751953125,6.97412109375q0,2.6279296875-0.758056640625,4.969482421875t-2.139404296875,4.3798828125t-3.234375,3.722900390625t-4.07666015625,2.93115234375q0.90966796875,0.90966796875,2.3583984375,3.217529296875t2.86376953125,4.9189453125t2.510009765625,5.070556640625t1.297119140625,3.7060546875l-0.404296875,0.6064453125q-0.90966796875,0.5390625-2.18994140625,0.57275390625q-0.6064453125,0-1.58349609375-0.151611328125t-1.24658203125-0.892822265625q-1.38134765625-3.87451171875-3.015380859375-7.98486328125t-4.026123046875-7.412109375l0-0.0673828125q-0.84228515625,0.3369140625-1.667724609375,0.656982421875t-1.667724609375,0.589599609375q0.26953125,3.73974609375,0.555908203125,7.361572265625t0.286376953125,7.327880859375q0,0.4716796875-0.454833984375,0.758056640625t-1.027587890625,0.454833984375t-1.162353515625,0.23583984375t-0.960205078125,0.0673828125q-0.3369140625,0-0.960205078125-0.0673828125t-1.196044921875-0.23583984375t-0.993896484375-0.488525390625t-0.421142578125-0.859130859375q0-3.73974609375-0.16845703125-7.462646484375t-0.37060546875-7.428955078125q-1.04443359375-0.673828125-1.04443359375-1.751953125q0-0.84228515625,0.80859375-1.1455078125q-0.404296875-7.10888671875-0.926513671875-14.18408203125t-0.522216796875-14.25146484375z M58.888784179687,34.79833984375q0.4716796875,7.31103515625,1.061279296875,14.45361328125t1.128662109375,14.45361328125q2.3583984375-0.673828125,4.396728515625-2.341552734375t3.520751953125-3.756591796875t2.307861328125-4.54833984375t0.825439453125-4.88525390625q0-2.6953125-1.078125-5.171630859375t-2.86376953125-4.329345703125q-1.8193359375-1.85302734375-4.177734375-2.8974609375q-2.0888671875-0.90966796875-4.3798828125-0.90966796875l-0.6064453125,0z M85.224345703125,81.5283203125q0.134765625-7.04150390625,0.589599609375-14.04931640625t0.791748046875-14.04931640625q0.0673828125-2.6953125,0.0673828125-4.902099609375t0.218994140625-3.823974609375t0.80859375-2.476318359375t1.970947265625-0.859130859375q1.17919921875,0,1.78564453125,0.3369140625t0.926513671875,0.859130859375t0.387451171875,1.17919921875t0.0673828125,1.330810546875q0,0.97705078125,0.0673828125,1.937255859375t0.0673828125,1.937255859375q0,7.10888671875-0.387451171875,14.18408203125t-0.387451171875,14.25146484375q0,1.04443359375,0.03369140625,2.105712890625t0.03369140625,2.173095703125q0,0.404296875-0.37060546875,0.673828125t-0.926513671875,0.454833984375t-1.17919921875,0.252685546875t-1.027587890625,0.0673828125q-0.4716796875,0-1.061279296875-0.0673828125t-1.1455078125-0.286376953125t-0.943359375-0.522216796875t-0.387451171875-0.70751953125z M87.111064453125,35.8427734375q0-0.3369140625,0.10107421875-0.758056640625t0.23583984375-0.758056640625q0.0673828125-0.404296875,0.2021484375-1.38134765625t0.488525390625-1.903564453125t0.97705078125-1.65087890625t1.768798828125-0.724365234375l0.64013671875,0q0.5390625,0.134765625,1.094970703125,0.3369140625t0.555908203125,0.97705078125q0,0.3369140625-0.03369140625,0.64013671875t-0.10107421875,0.673828125q-0.26953125,1.98779296875-0.522216796875,3.13330078125t-0.589599609375,1.735107421875t-0.859130859375,0.758056640625t-1.330810546875,0.23583984375q-0.26953125,0-0.724365234375-0.03369140625t-0.8759765625-0.16845703125t-0.724365234375-0.421142578125t-0.30322265625-0.690673828125z M100.13852050781,76.5419921875q-0.03369140625-1.0107421875-0.03369140625-2.021484375q0-3.1669921875,0.3369140625-6.36767578125q0.404296875-4.2451171875,0.5390625-8.35546875q0.134765625-4.81787109375,0.404296875-10.00634765625q0.16845703125-2.830078125,0.16845703125-5.5927734375q0-2.25732421875-0.10107421875-4.48095703125q0.3369140625-0.77490234375,0.892822265625-1.04443359375t1.398193359375-0.26953125q0.404296875,0,0.859130859375,0.0673828125t0.791748046875,0.3369140625q0.4716796875,0.0673828125,1.162353515625,0.134765625t1.061279296875,0.404296875q0.134765625,0.2021484375,0.690673828125,1.38134765625t1.31396484375,2.86376953125t1.58349609375,3.655517578125t1.58349609375,3.73974609375t1.31396484375,3.116455078125t0.690673828125,1.6845703125q3.1669921875-5.7275390625,6.19921875-11.775146484375t6.63720703125-11.404541015625q0.3369140625-0.4716796875,1.162353515625-0.690673828125t1.364501953125-0.218994140625q1.44873046875,0,2.105712890625,0.690673828125t0.859130859375,1.768798828125q0.134765625,0.673828125,0.16845703125,1.44873046875q0.03369140625,0.404296875-0.03369140625,0.84228515625q-0.134765625,1.24658203125-0.134765625,2.3583984375q0,7.85009765625-0.5390625,15.582275390625t-0.97705078125,15.615966796875q-0.0673828125,1.6171875-0.0673828125,3.369140625t0.0673828125,3.638671875q0.03369140625,0.673828125,0.03369140625,1.31396484375q0,2.96484375-0.50537109375,5.525390625q-0.4716796875,0.77490234375-1.5498046875,0.97705078125t-1.8193359375,0.2021484375q-1.58349609375,0-3.0322265625-0.7412109375l-0.37060546875-0.43798828125l-0.134765625-0.5390625t-0.0673828125-0.5390625q0-4.88525390625,0.353759765625-9.837890625t0.791748046875-9.888427734375t0.926513671875-9.854736328125t0.825439453125-9.837890625q-1.98779296875,3.3017578125-3.857666015625,6.721435546875t-3.520751953125,6.957275390625q-0.6064453125,1.38134765625-1.162353515625,2.96484375t-1.330810546875,2.830078125q-0.404296875,0.6064453125-1.364501953125,0.7412109375t-1.667724609375,0.134765625q-0.673828125,0-1.398193359375-0.23583984375t-0.993896484375-1.0107421875q-1.24658203125-3.80712890625-2.66162109375-7.44580078125t-2.86376953125-7.37841796875q0,2.4931640625,0.10107421875,6.451904296875t0.10107421875,8.203857421875t-0.134765625,8.11962890625t-0.64013671875,6.1318359375q-0.134765625,0.84228515625-1.094970703125,1.04443359375t-1.667724609375,0.2021484375q-0.5390625,0-1.027587890625-0.0673828125t-0.960205078125-0.26953125z"/><path fill="#" d=""/></svg>
