<?xml version="1.0"?>
<svg version="1.1" xmlns="http://www.w3.org/2000/svg" width="400" height="71" style=""><path fill="#1c6bd4" d="M16.581298828125,25.850341796875q-0.062255859375-0.759521484375,0.099609375-1.31982421875t0.6474609375-0.92138671875t1.556396484375-0.361083984375l4.00927734375,0q0.82177734375,0,2.154052734375,0.087158203125t2.86376953125,0.261474609375t3.050537109375,0.535400390625t2.776611328125,0.896484375t2.0419921875,1.31982421875t0.784423828125,1.855224609375q0,1.51904296875-0.884033203125,2.851318359375t-2.21630859375,2.403076171875t-2.81396484375,1.905029296875t-2.652099609375,1.506591796875q4.6318359375,1.02099609375,7.24658203125,4.2333984375t2.61474609375,8.0185546875q0,2.5400390625-0.97119140625,5.017822265625t-2.652099609375,4.469970703125t-3.984375,3.21240234375t-4.943115234375,1.22021484375q-0.3486328125,0-0.784423828125-0.07470703125t-0.796875-0.236572265625t-0.62255859375-0.460693359375t-0.261474609375-0.77197265625q0-2.19140625,2.36572265625-2.19140625q0.3984375,0,0.933837890625,0.112060546875t0.834228515625,0.460693359375q1.36962890625-0.57275390625,2.502685546875-1.81787109375t1.91748046875-2.776611328125t1.22021484375-3.21240234375t0.435791015625-3.050537109375q0-1.6435546875-0.485595703125-3.349365234375t-1.406982421875-3.16259765625t-2.26611328125-2.452880859375t-3.087890625-1.2451171875q-0.4482421875-0.0498046875-0.983642578125-0.07470703125l-1.07080078125-0.0498046875t-1.0458984375-0.1494140625t-0.884033203125-0.3984375q0.19921875,4.1337890625,0.510498046875,8.24267578125t0.834228515625,8.24267578125q0.19921875,0.19921875,0.27392578125,0.585205078125t0.12451171875,0.82177734375t0.0498046875,0.834228515625l0,0.67236328125q0,0.4482421875-0.298828125,0.734619140625t-0.709716796875,0.460693359375t-0.87158203125,0.22412109375t-0.809326171875,0.0498046875q-1.12060546875,0-1.71826171875-0.298828125t-0.8466796875-0.87158203125t-0.32373046875-1.307373046875t-0.12451171875-1.606201171875q-0.67236328125-6.94775390625-0.97119140625-13.74609375t-0.298828125-13.74609375q0-0.82177734375-0.062255859375-1.581298828125z M21.17578125,24.7919921875q0,3.06298828125,0.19921875,6.138427734375t0.3486328125,6.138427734375q1.12060546875-0.67236328125,2.9384765625-1.581298828125t3.523681640625-2.004638671875t2.926025390625-2.41552734375t1.22021484375-2.86376953125q0-1.22021484375-1.4443359375-1.855224609375t-3.36181640625-0.9462890625t-3.747802734375-0.385986328125t-2.602294921875-0.22412109375z M42.932211914062,26.8837890625q0-1.17041015625,0.286376953125-1.705810546875t0.82177734375-0.7470703125t1.294921875-0.161865234375t1.780517578125,0.0498046875q2.58984375,0,5.2294921875,0.796875t4.75634765625,2.328369140625t3.41162109375,3.772705078125t1.294921875,5.15478515625q0,1.9423828125-0.560302734375,3.673095703125t-1.581298828125,3.2373046875t-2.390625,2.751708984375t-3.01318359375,2.16650390625q0.67236328125,0.67236328125,1.7431640625,2.378173828125t2.11669921875,3.6357421875t1.855224609375,3.747802734375t0.958740234375,2.7392578125l-0.298828125,0.4482421875q-0.67236328125,0.3984375-1.61865234375,0.42333984375q-0.4482421875,0-1.17041015625-0.112060546875t-0.92138671875-0.659912109375q-1.02099609375-2.86376953125-2.228759765625-5.90185546875t-2.975830078125-5.478515625l0-0.0498046875q-0.62255859375,0.2490234375-1.232666015625,0.485595703125t-1.232666015625,0.435791015625q0.19921875,2.76416015625,0.410888671875,5.441162109375t0.211669921875,5.416259765625q0,0.3486328125-0.336181640625,0.560302734375t-0.759521484375,0.336181640625t-0.859130859375,0.17431640625t-0.709716796875,0.0498046875q-0.2490234375,0-0.709716796875-0.0498046875t-0.884033203125-0.17431640625t-0.734619140625-0.361083984375t-0.311279296875-0.635009765625q0-2.76416015625-0.12451171875-5.515869140625t-0.27392578125-5.490966796875q-0.77197265625-0.498046875-0.77197265625-1.294921875q0-0.62255859375,0.59765625-0.8466796875q-0.298828125-5.25439453125-0.684814453125-10.48388671875t-0.385986328125-10.53369140625z M47.439536132812,26.11181640625q0.3486328125,5.40380859375,0.784423828125,10.68310546875t0.834228515625,10.68310546875q1.7431640625-0.498046875,3.249755859375-1.730712890625t2.602294921875-2.776611328125t1.705810546875-3.36181640625t0.610107421875-3.61083984375q0-1.9921875-0.796875-3.822509765625t-2.11669921875-3.199951171875q-1.3447265625-1.36962890625-3.087890625-2.1416015625q-1.5439453125-0.67236328125-3.2373046875-0.67236328125l-0.4482421875,0z M66.904951171875,60.6513671875q0.099609375-5.20458984375,0.435791015625-10.38427734375t0.585205078125-10.38427734375q0.0498046875-1.9921875,0.0498046875-3.623291015625t0.161865234375-2.826416015625t0.59765625-1.830322265625t1.456787109375-0.635009765625q0.87158203125,0,1.31982421875,0.2490234375t0.684814453125,0.635009765625t0.286376953125,0.87158203125t0.0498046875,0.983642578125q0,0.72216796875,0.0498046875,1.431884765625t0.0498046875,1.431884765625q0,5.25439453125-0.286376953125,10.48388671875t-0.286376953125,10.53369140625q0,0.77197265625,0.02490234375,1.556396484375t0.02490234375,1.606201171875q0,0.298828125-0.27392578125,0.498046875t-0.684814453125,0.336181640625t-0.87158203125,0.186767578125t-0.759521484375,0.0498046875q-0.3486328125,0-0.784423828125-0.0498046875t-0.8466796875-0.211669921875t-0.697265625-0.385986328125t-0.286376953125-0.52294921875z M68.299482421875,26.8837890625q0-0.2490234375,0.07470703125-0.560302734375t0.17431640625-0.560302734375q0.0498046875-0.298828125,0.1494140625-1.02099609375t0.361083984375-1.406982421875t0.72216796875-1.22021484375t1.307373046875-0.535400390625l0.47314453125,0q0.3984375,0.099609375,0.809326171875,0.2490234375t0.410888671875,0.72216796875q0,0.2490234375-0.02490234375,0.47314453125t-0.07470703125,0.498046875q-0.19921875,1.46923828125-0.385986328125,2.31591796875t-0.435791015625,1.282470703125t-0.635009765625,0.560302734375t-0.983642578125,0.17431640625q-0.19921875,0-0.535400390625-0.02490234375t-0.6474609375-0.12451171875t-0.535400390625-0.311279296875t-0.22412109375-0.510498046875z"/><path fill="#69a4cf" d="M82.811624023438,55.234l2.046,0l0-13.959q0-2.772,2.112-4.884t4.884-2.112q2.706,0,4.884,2.112q2.079,2.079,2.079,4.884l0,13.959l2.112,0l0-13.959q0-2.838,2.112-4.884q2.112-2.112,4.851-2.112q2.772,0,4.884,2.112t2.112,4.884l0,13.959l2.046,0l0-13.959q0-3.762-2.64-6.402t-6.402-2.64q-2.475,0-4.653,1.353q-2.211,1.386-3.168,3.531q-1.287-2.211-3.465-3.531q-2.277-1.353-4.752-1.353q-3.729,0-6.369,2.64q-2.673,2.673-2.673,6.402l0,13.959z M131.11834402344,32.2q-3.729,0-6.402,2.673q-2.706,2.706-2.706,6.435l0,4.983q0,3.663,2.706,6.369t6.402,2.706q3.729,0,6.435-2.706q2.673-2.673,2.673-6.369l0-4.983q0-3.762-2.673-6.435t-6.435-2.673z M138.18034402344,41.308l0,4.983q0,3.003-2.112,5.049q-2.079,1.98-4.95,1.98t-4.917-1.98q-2.112-2.046-2.112-5.049l0-4.983q0-2.772,2.112-4.95q2.112-2.112,4.917-2.112q2.772,0,4.95,2.112q2.112,2.178,2.112,4.95z M162.56206402344,32.068l-2.508,0l-7.029,17.457l-6.633-17.457l-2.079,0l8.712,23.232z M166.91278402344,55.333l2.079,0l0-23.199l-2.079,0l0,23.199z M176.08150402344,48.964q0-1.584,1.122-2.871q1.122-1.353,2.706-1.353l0.429,0l6.171,0l0-2.046l-6.171,0l-0.429,0q-1.683-0.33-2.7555-1.452t-1.0725-2.673q0-1.947,1.1385-3.0855t3.1185-1.1385l11.22,0l0-2.079l-11.22,0q-2.541,0-4.422,1.881q-1.881,1.815-1.881,4.422q0,1.65,0.627,3.003t1.848,1.947q-1.221,0.891-1.848,2.343t-0.627,3.102q0,2.574,1.881,4.389q1.914,1.914,4.422,1.914l11.22,0l0-2.178l-11.22,0q-1.98,0-3.1185-1.122t-1.1385-3.003z"/></svg>
