<?xml version="1.0"?>
<svg version="1.1" xmlns="http://www.w3.org/2000/svg" width="108" height="97" style=""><path fill="#1c6bd4" d="M17.3564453125,34.1201171875q-0.0927734375-1.1318359375,0.1484375-1.966796875t0.96484375-1.373046875t2.3193359375-0.5380859375l5.974609375,0q1.224609375,0,3.2099609375,0.1298828125t4.267578125,0.3896484375t4.5458984375,0.7978515625t4.1376953125,1.3359375t3.04296875,1.966796875t1.1689453125,2.7646484375q0,2.263671875-1.3173828125,4.2490234375t-3.302734375,3.5810546875t-4.193359375,2.8388671875t-3.9521484375,2.2451171875q6.90234375,1.521484375,10.798828125,6.30859375t3.896484375,11.94921875q0,3.78515625-1.447265625,7.4775390625t-3.9521484375,6.6611328125t-5.9375,4.787109375t-7.3662109375,1.818359375q-0.51953125,0-1.1689453125-0.111328125t-1.1875-0.3525390625t-0.927734375-0.6865234375t-0.3896484375-1.150390625q0-3.265625,3.525390625-3.265625q0.59375,0,1.3916015625,0.1669921875t1.2431640625,0.6865234375q2.041015625-0.853515625,3.7294921875-2.708984375t2.857421875-4.1376953125t1.818359375-4.787109375t0.6494140625-4.5458984375q0-2.44921875-0.7236328125-4.9912109375t-2.0966796875-4.712890625t-3.376953125-3.6552734375t-4.6015625-1.85546875q-0.66796875-0.07421875-1.4658203125-0.111328125l-1.595703125-0.07421875t-1.55859375-0.22265625t-1.3173828125-0.59375q0.296875,6.16015625,0.7607421875,12.283203125t1.2431640625,12.283203125q0.296875,0.296875,0.408203125,0.8720703125t0.185546875,1.224609375t0.07421875,1.2431640625l0,1.001953125q0,0.66796875-0.4453125,1.0947265625t-1.0576171875,0.6865234375t-1.298828125,0.333984375t-1.2060546875,0.07421875q-1.669921875,0-2.560546875-0.4453125t-1.26171875-1.298828125t-0.482421875-1.9482421875t-0.185546875-2.3935546875q-1.001953125-10.353515625-1.447265625-20.484375t-0.4453125-20.484375q0-1.224609375-0.0927734375-2.3564453125z M24.203125,32.54296875q0,4.564453125,0.296875,9.1474609375t0.51953125,9.1474609375q1.669921875-1.001953125,4.37890625-2.3564453125t5.2509765625-2.9873046875t4.3603515625-3.599609375t1.818359375-4.267578125q0-1.818359375-2.15234375-2.7646484375t-5.009765625-1.41015625t-5.5849609375-0.5751953125t-3.8779296875-0.333984375z M56.62447265625,35.66015625q0-1.744140625,0.4267578125-2.5419921875t1.224609375-1.11328125t1.9296875-0.2412109375t2.6533203125,0.07421875q3.859375,0,7.79296875,1.1875t7.087890625,3.4697265625t5.083984375,5.6220703125t1.9296875,7.681640625q0,2.89453125-0.8349609375,5.4736328125t-2.3564453125,4.82421875t-3.5625,4.1005859375t-4.490234375,3.228515625q1.001953125,1.001953125,2.59765625,3.5439453125t3.154296875,5.41796875t2.7646484375,5.5849609375t1.4287109375,4.08203125l-0.4453125,0.66796875q-1.001953125,0.59375-2.412109375,0.630859375q-0.66796875,0-1.744140625-0.1669921875t-1.373046875-0.9833984375q-1.521484375-4.267578125-3.3212890625-8.794921875t-4.4345703125-8.1640625l0-0.07421875q-0.927734375,0.37109375-1.8369140625,0.7236328125t-1.8369140625,0.6494140625q0.296875,4.119140625,0.6123046875,8.1083984375t0.3154296875,8.0712890625q0,0.51953125-0.5009765625,0.8349609375t-1.1318359375,0.5009765625t-1.2802734375,0.259765625t-1.0576171875,0.07421875q-0.37109375,0-1.0576171875-0.07421875t-1.3173828125-0.259765625t-1.0947265625-0.5380859375t-0.4638671875-0.9462890625q0-4.119140625-0.185546875-8.2197265625t-0.408203125-8.1826171875q-1.150390625-0.7421875-1.150390625-1.9296875q0-0.927734375,0.890625-1.26171875q-0.4453125-7.830078125-1.0205078125-15.623046875t-0.5751953125-15.697265625z M63.34126953125,34.509765625q0.51953125,8.052734375,1.1689453125,15.919921875t1.2431640625,15.919921875q2.59765625-0.7421875,4.8427734375-2.5791015625t3.8779296875-4.1376953125t2.5419921875-5.009765625t0.9091796875-5.380859375q0-2.96875-1.1875-5.6962890625t-3.154296875-4.7685546875q-2.00390625-2.041015625-4.6015625-3.19140625q-2.30078125-1.001953125-4.82421875-1.001953125l-0.66796875,0z M92.3485546875,85.98046875q0.1484375-7.755859375,0.6494140625-15.474609375t0.8720703125-15.474609375q0.07421875-2.96875,0.07421875-5.3994140625t0.2412109375-4.2119140625t0.890625-2.7275390625t2.1708984375-0.9462890625q1.298828125,0,1.966796875,0.37109375t1.0205078125,0.9462890625t0.4267578125,1.298828125t0.07421875,1.4658203125q0,1.076171875,0.07421875,2.1337890625t0.07421875,2.1337890625q0,7.830078125-0.4267578125,15.623046875t-0.4267578125,15.697265625q0,1.150390625,0.037109375,2.3193359375t0.037109375,2.3935546875q0,0.4453125-0.408203125,0.7421875t-1.0205078125,0.5009765625t-1.298828125,0.2783203125t-1.1318359375,0.07421875q-0.51953125,0-1.1689453125-0.07421875t-1.26171875-0.3154296875t-1.0390625-0.5751953125t-0.4267578125-0.779296875z M94.4266796875,35.66015625q0-0.37109375,0.111328125-0.8349609375t0.259765625-0.8349609375q0.07421875-0.4453125,0.22265625-1.521484375t0.5380859375-2.0966796875t1.076171875-1.818359375t1.9482421875-0.7978515625l0.705078125,0q0.59375,0.1484375,1.2060546875,0.37109375t0.6123046875,1.076171875q0,0.37109375-0.037109375,0.705078125t-0.111328125,0.7421875q-0.296875,2.189453125-0.5751953125,3.451171875t-0.6494140625,1.9111328125t-0.9462890625,0.8349609375t-1.4658203125,0.259765625q-0.296875,0-0.7978515625-0.037109375t-0.96484375-0.185546875t-0.7978515625-0.4638671875t-0.333984375-0.7607421875z M108.77576171875,80.48828125q-0.037109375-1.11328125-0.037109375-2.2265625q0-3.48828125,0.37109375-7.013671875q0.4453125-4.67578125,0.59375-9.203125q0.1484375-5.306640625,0.4453125-11.021484375q0.185546875-3.1171875,0.185546875-6.16015625q0-2.486328125-0.111328125-4.935546875q0.37109375-0.853515625,0.9833984375-1.150390625t1.5400390625-0.296875q0.4453125,0,0.9462890625,0.07421875t0.8720703125,0.37109375q0.51953125,0.07421875,1.2802734375,0.1484375t1.1689453125,0.4453125q0.1484375,0.22265625,0.7607421875,1.521484375t1.447265625,3.154296875t1.744140625,4.0263671875t1.744140625,4.119140625t1.447265625,3.4326171875t0.7607421875,1.85546875q3.48828125-6.30859375,6.828125-12.9697265625t7.310546875-12.5615234375q0.37109375-0.51953125,1.2802734375-0.7607421875t1.5029296875-0.2412109375q1.595703125,0,2.3193359375,0.7607421875t0.9462890625,1.9482421875q0.1484375,0.7421875,0.185546875,1.595703125q0.037109375,0.4453125-0.037109375,0.927734375q-0.1484375,1.373046875-0.1484375,2.59765625q0,8.646484375-0.59375,17.1630859375t-1.076171875,17.2001953125q-0.07421875,1.78125-0.07421875,3.7109375t0.07421875,4.0078125q0.037109375,0.7421875,0.037109375,1.447265625q0,3.265625-0.556640625,6.0859375q-0.51953125,0.853515625-1.70703125,1.076171875t-2.00390625,0.22265625q-1.744140625,0-3.33984375-0.81640625l-0.408203125-0.482421875l-0.1484375-0.59375t-0.07421875-0.59375q0-5.380859375,0.3896484375-10.8359375t0.8720703125-10.8916015625t1.0205078125-10.8544921875t0.9091796875-10.8359375q-2.189453125,3.63671875-4.2490234375,7.4033203125t-3.8779296875,7.6630859375q-0.66796875,1.521484375-1.2802734375,3.265625t-1.4658203125,3.1171875q-0.4453125,0.66796875-1.5029296875,0.81640625t-1.8369140625,0.1484375q-0.7421875,0-1.5400390625-0.259765625t-1.0947265625-1.11328125q-1.373046875-4.193359375-2.931640625-8.201171875t-3.154296875-8.126953125q0,2.74609375,0.111328125,7.1064453125t0.111328125,9.0361328125t-0.1484375,8.943359375t-0.705078125,6.75390625q-0.1484375,0.927734375-1.2060546875,1.150390625t-1.8369140625,0.22265625q-0.59375,0-1.1318359375-0.07421875t-1.0576171875-0.296875z"/><path fill="#69a4cf" d=""/></svg>
